<svg width="146" height="16" viewBox="0 0 146 16" fill="none" xmlns="http://www.w3.org/2000/svg">
<path d="M8.04545 0.863636H9.45455V8.56818C9.45455 9.36364 9.26705 10.0739 8.89205 10.6989C8.52083 11.3201 7.99621 11.8106 7.31818 12.1705C6.64015 12.5265 5.8447 12.7045 4.93182 12.7045C4.01894 12.7045 3.22348 12.5265 2.54545 12.1705C1.86742 11.8106 1.34091 11.3201 0.965909 10.6989C0.594697 10.0739 0.409091 9.36364 0.409091 8.56818V0.863636H1.81818V8.45455C1.81818 9.02273 1.94318 9.52841 2.19318 9.97159C2.44318 10.411 2.79924 10.7576 3.26136 11.0114C3.72727 11.2614 4.28409 11.3864 4.93182 11.3864C5.57955 11.3864 6.13636 11.2614 6.60227 11.0114C7.06818 10.7576 7.42424 10.411 7.67045 9.97159C7.92045 9.52841 8.04545 9.02273 8.04545 8.45455V0.863636ZM12.0866 15.7727V3.77273H13.3821V5.15909H13.5412C13.6397 5.00758 13.776 4.81439 13.9503 4.57955C14.1283 4.34091 14.3821 4.12879 14.7116 3.94318C15.045 3.75379 15.4957 3.65909 16.0639 3.65909C16.7988 3.65909 17.4465 3.8428 18.0071 4.21023C18.5677 4.57765 19.0052 5.09848 19.3196 5.77273C19.634 6.44697 19.7912 7.24242 19.7912 8.15909C19.7912 9.08333 19.634 9.88447 19.3196 10.5625C19.0052 11.2367 18.5696 11.7595 18.0128 12.1307C17.456 12.4981 16.8139 12.6818 16.0866 12.6818C15.526 12.6818 15.0772 12.589 14.7401 12.4034C14.4029 12.214 14.1435 12 13.9616 11.7614C13.7798 11.5189 13.6397 11.3182 13.5412 11.1591H13.4276V15.7727H12.0866ZM13.4048 8.13636C13.4048 8.79545 13.5014 9.37689 13.6946 9.88068C13.8878 10.3807 14.17 10.7727 14.5412 11.0568C14.9124 11.3371 15.367 11.4773 15.9048 11.4773C16.4654 11.4773 16.9332 11.3295 17.3082 11.0341C17.687 10.7348 17.9711 10.3333 18.1605 9.82955C18.3537 9.32197 18.4503 8.75758 18.4503 8.13636C18.4503 7.52273 18.3556 6.9697 18.1662 6.47727C17.9806 5.98106 17.6984 5.58902 17.3196 5.30114C16.9446 5.00947 16.473 4.86364 15.9048 4.86364C15.3594 4.86364 14.901 5.00189 14.5298 5.27841C14.1586 5.55114 13.8783 5.93371 13.6889 6.42614C13.4995 6.91477 13.4048 7.48485 13.4048 8.13636ZM25.3821 12.6818C24.5639 12.6818 23.8594 12.4886 23.2685 12.1023C22.6776 11.7159 22.223 11.1837 21.9048 10.5057C21.5866 9.82765 21.4276 9.05303 21.4276 8.18182C21.4276 7.29545 21.5904 6.51326 21.9162 5.83523C22.2457 5.15341 22.7041 4.62121 23.2912 4.23864C23.8821 3.85227 24.5715 3.65909 25.3594 3.65909C25.973 3.65909 26.526 3.77273 27.0185 4C27.5109 4.22727 27.9143 4.54545 28.2287 4.95455C28.5431 5.36364 28.7382 5.84091 28.8139 6.38636H27.473C27.3707 5.98864 27.1435 5.63636 26.7912 5.32955C26.4427 5.01894 25.973 4.86364 25.3821 4.86364C24.8594 4.86364 24.401 5 24.0071 5.27273C23.617 5.54167 23.312 5.92235 23.0923 6.41477C22.8764 6.90341 22.7685 7.47727 22.7685 8.13636C22.7685 8.81061 22.8745 9.39773 23.0866 9.89773C23.3026 10.3977 23.6056 10.786 23.9957 11.0625C24.3897 11.339 24.8518 11.4773 25.3821 11.4773C25.7306 11.4773 26.0469 11.4167 26.331 11.2955C26.6151 11.1742 26.8556 11 27.0526 10.7727C27.2495 10.5455 27.3897 10.2727 27.473 9.95455H28.8139C28.7382 10.4697 28.5507 10.9337 28.2514 11.3466C27.956 11.7557 27.5639 12.0814 27.0753 12.3239C26.5904 12.5625 26.026 12.6818 25.3821 12.6818ZM34.3196 12.6818C33.5317 12.6818 32.8404 12.4943 32.2457 12.1193C31.6548 11.7443 31.1927 11.2197 30.8594 10.5455C30.5298 9.87121 30.3651 9.08333 30.3651 8.18182C30.3651 7.27273 30.5298 6.47917 30.8594 5.80114C31.1927 5.12311 31.6548 4.59659 32.2457 4.22159C32.8404 3.84659 33.5317 3.65909 34.3196 3.65909C35.1075 3.65909 35.7969 3.84659 36.3878 4.22159C36.9825 4.59659 37.4446 5.12311 37.7741 5.80114C38.1075 6.47917 38.2741 7.27273 38.2741 8.18182C38.2741 9.08333 38.1075 9.87121 37.7741 10.5455C37.4446 11.2197 36.9825 11.7443 36.3878 12.1193C35.7969 12.4943 35.1075 12.6818 34.3196 12.6818ZM34.3196 11.4773C34.9181 11.4773 35.4105 11.3239 35.7969 11.017C36.1832 10.7102 36.4692 10.3068 36.6548 9.80682C36.8404 9.30682 36.9332 8.76515 36.9332 8.18182C36.9332 7.59848 36.8404 7.05492 36.6548 6.55114C36.4692 6.04735 36.1832 5.64015 35.7969 5.32955C35.4105 5.01894 34.9181 4.86364 34.3196 4.86364C33.7211 4.86364 33.2287 5.01894 32.8423 5.32955C32.456 5.64015 32.17 6.04735 31.9844 6.55114C31.7988 7.05492 31.706 7.59848 31.706 8.18182C31.706 8.76515 31.7988 9.30682 31.9844 9.80682C32.17 10.3068 32.456 10.7102 32.8423 11.017C33.2287 11.3239 33.7211 11.4773 34.3196 11.4773ZM40.321 12.5V3.77273H41.6165V5.13636H41.7301C41.9119 4.67045 42.2055 4.30871 42.6108 4.05114C43.0161 3.78977 43.5028 3.65909 44.071 3.65909C44.6468 3.65909 45.1259 3.78977 45.5085 4.05114C45.8949 4.30871 46.196 4.67045 46.4119 5.13636H46.5028C46.7263 4.68561 47.0616 4.32765 47.5085 4.0625C47.9555 3.79356 48.4915 3.65909 49.1165 3.65909C49.8968 3.65909 50.535 3.90341 51.0312 4.39205C51.5275 4.87689 51.7756 5.63258 51.7756 6.65909V12.5H50.4347V6.65909C50.4347 6.01515 50.2585 5.55492 49.9062 5.27841C49.554 5.00189 49.1392 4.86364 48.6619 4.86364C48.0483 4.86364 47.5729 5.04924 47.2358 5.42045C46.8987 5.78788 46.7301 6.25379 46.7301 6.81818V12.5H45.3665V6.52273C45.3665 6.02652 45.2055 5.62689 44.8835 5.32386C44.5616 5.01705 44.1468 4.86364 43.6392 4.86364C43.2907 4.86364 42.965 4.95644 42.6619 5.14205C42.3627 5.32765 42.1203 5.58523 41.9347 5.91477C41.7528 6.24053 41.6619 6.61742 41.6619 7.04545V12.5H40.321ZM54.2273 12.5V3.77273H55.5682V12.5H54.2273ZM54.9091 2.31818C54.6477 2.31818 54.4223 2.22917 54.233 2.05114C54.0473 1.87311 53.9545 1.65909 53.9545 1.40909C53.9545 1.15909 54.0473 0.945076 54.233 0.767045C54.4223 0.589015 54.6477 0.5 54.9091 0.5C55.1705 0.5 55.3939 0.589015 55.5795 0.767045C55.7689 0.945076 55.8636 1.15909 55.8636 1.40909C55.8636 1.65909 55.7689 1.87311 55.5795 2.05114C55.3939 2.22917 55.1705 2.31818 54.9091 2.31818ZM59.3651 7.25V12.5H58.0241V3.77273H59.3196V5.13636H59.4332C59.6378 4.69318 59.9484 4.33712 60.3651 4.06818C60.7817 3.79545 61.3196 3.65909 61.9787 3.65909C62.5696 3.65909 63.0866 3.7803 63.5298 4.02273C63.973 4.26136 64.3177 4.625 64.5639 5.11364C64.8101 5.59848 64.9332 6.21212 64.9332 6.95455V12.5H63.5923V7.04545C63.5923 6.35985 63.4143 5.82576 63.0582 5.44318C62.7022 5.05682 62.2135 4.86364 61.5923 4.86364C61.1643 4.86364 60.7817 4.95644 60.4446 5.14205C60.1113 5.32765 59.848 5.59848 59.6548 5.95455C59.4616 6.31061 59.3651 6.74242 59.3651 7.25ZM70.9062 15.9545C70.2585 15.9545 69.7017 15.8712 69.2358 15.7045C68.7699 15.5417 68.3816 15.3258 68.071 15.0568C67.7642 14.7917 67.5199 14.5076 67.3381 14.2045L68.4062 13.4545C68.5275 13.6136 68.6809 13.7955 68.8665 14C69.0521 14.2083 69.3059 14.3883 69.6278 14.5398C69.9536 14.6951 70.3797 14.7727 70.9062 14.7727C71.6108 14.7727 72.1922 14.6023 72.6506 14.2614C73.1089 13.9205 73.3381 13.3864 73.3381 12.6591V10.8864H73.2244C73.1259 11.0455 72.9858 11.2424 72.804 11.4773C72.6259 11.7083 72.3684 11.9148 72.0312 12.0966C71.6979 12.2746 71.2472 12.3636 70.679 12.3636C69.9744 12.3636 69.3419 12.197 68.7812 11.8636C68.2244 11.5303 67.7831 11.0455 67.4574 10.4091C67.1354 9.77273 66.9744 9 66.9744 8.09091C66.9744 7.19697 67.1316 6.41856 67.446 5.75568C67.7604 5.08901 68.1979 4.57386 68.7585 4.21023C69.3191 3.8428 69.9669 3.65909 70.7017 3.65909C71.2699 3.65909 71.7206 3.75379 72.054 3.94318C72.3911 4.12879 72.6487 4.34091 72.8267 4.57955C73.0085 4.81439 73.1487 5.00758 73.2472 5.15909H73.3835V3.77273H74.679V12.75C74.679 13.5 74.5085 14.1098 74.1676 14.5795C73.8305 15.053 73.3759 15.3996 72.804 15.6193C72.2358 15.8428 71.6032 15.9545 70.9062 15.9545ZM70.8608 11.1591C71.3987 11.1591 71.8532 11.036 72.2244 10.7898C72.5956 10.5436 72.8778 10.1894 73.071 9.72727C73.2642 9.26515 73.3608 8.71212 73.3608 8.06818C73.3608 7.43939 73.2661 6.88447 73.0767 6.40341C72.8873 5.92235 72.607 5.54545 72.2358 5.27273C71.8646 5 71.4063 4.86364 70.8608 4.86364C70.2926 4.86364 69.8191 5.00758 69.4403 5.29545C69.0653 5.58333 68.7831 5.9697 68.5938 6.45455C68.4081 6.93939 68.3153 7.47727 68.3153 8.06818C68.3153 8.67424 68.41 9.21023 68.5994 9.67614C68.7926 10.1383 69.0767 10.5019 69.4517 10.767C69.8305 11.0284 70.3002 11.1591 70.8608 11.1591ZM85.4062 12.5H81.8153V0.863636H85.5653C86.6941 0.863636 87.66 1.09659 88.4631 1.5625C89.2661 2.02462 89.8816 2.68939 90.3097 3.55682C90.7377 4.42045 90.9517 5.45455 90.9517 6.65909C90.9517 7.87121 90.7358 8.91477 90.304 9.78977C89.8722 10.661 89.2434 11.3314 88.4176 11.8011C87.5919 12.267 86.5881 12.5 85.4062 12.5ZM83.2244 11.25H85.3153C86.2775 11.25 87.0748 11.0644 87.7074 10.6932C88.34 10.322 88.8116 9.79356 89.1222 9.10795C89.4328 8.42235 89.5881 7.60606 89.5881 6.65909C89.5881 5.7197 89.4347 4.91098 89.1278 4.23295C88.821 3.55114 88.3627 3.02841 87.7528 2.66477C87.143 2.29735 86.3835 2.11364 85.4744 2.11364H83.2244V11.25ZM96.7926 12.6818C95.9517 12.6818 95.2263 12.4962 94.6165 12.125C94.0104 11.75 93.5426 11.2273 93.2131 10.5568C92.8873 9.88258 92.7244 9.09848 92.7244 8.20455C92.7244 7.31061 92.8873 6.52273 93.2131 5.84091C93.5426 5.1553 94.0009 4.62121 94.5881 4.23864C95.179 3.85227 95.8684 3.65909 96.6562 3.65909C97.1108 3.65909 97.5597 3.73485 98.0028 3.88636C98.446 4.03788 98.8494 4.28409 99.2131 4.625C99.5767 4.96212 99.8665 5.40909 100.082 5.96591C100.298 6.52273 100.406 7.20833 100.406 8.02273V8.59091H93.679V7.43182H99.0426C99.0426 6.93939 98.9441 6.5 98.7472 6.11364C98.554 5.72727 98.2775 5.42235 97.9176 5.19886C97.5616 4.97538 97.1411 4.86364 96.6562 4.86364C96.1222 4.86364 95.66 4.99621 95.2699 5.26136C94.8835 5.52273 94.5862 5.86364 94.3778 6.28409C94.1695 6.70455 94.0653 7.1553 94.0653 7.63636V8.40909C94.0653 9.06818 94.179 9.62689 94.4062 10.0852C94.6373 10.5398 94.9574 10.8864 95.3665 11.125C95.7756 11.3598 96.2509 11.4773 96.7926 11.4773C97.1449 11.4773 97.4631 11.428 97.7472 11.3295C98.035 11.2273 98.2831 11.0758 98.4915 10.875C98.6998 10.6705 98.8608 10.4167 98.9744 10.1136L100.27 10.4773C100.134 10.9167 99.9044 11.303 99.5824 11.6364C99.2604 11.9659 98.8627 12.2235 98.3892 12.4091C97.9157 12.5909 97.3835 12.6818 96.7926 12.6818ZM105.014 12.7045C104.461 12.7045 103.959 12.6004 103.509 12.392C103.058 12.1799 102.7 11.875 102.435 11.4773C102.17 11.0758 102.037 10.5909 102.037 10.0227C102.037 9.52273 102.135 9.11742 102.332 8.80682C102.529 8.49242 102.793 8.24621 103.122 8.06818C103.452 7.89015 103.815 7.75758 104.213 7.67045C104.615 7.57955 105.018 7.50758 105.423 7.45455C105.954 7.38636 106.384 7.33523 106.713 7.30114C107.046 7.26326 107.289 7.20076 107.44 7.11364C107.596 7.02652 107.673 6.875 107.673 6.65909V6.61364C107.673 6.05303 107.52 5.61742 107.213 5.30682C106.91 4.99621 106.45 4.84091 105.832 4.84091C105.192 4.84091 104.69 4.98106 104.327 5.26136C103.963 5.54167 103.707 5.84091 103.56 6.15909L102.287 5.70455C102.514 5.17424 102.817 4.76136 103.196 4.46591C103.579 4.16667 103.995 3.95833 104.446 3.84091C104.901 3.7197 105.348 3.65909 105.787 3.65909C106.067 3.65909 106.389 3.69318 106.753 3.76136C107.12 3.82576 107.474 3.96023 107.815 4.16477C108.16 4.36932 108.446 4.67803 108.673 5.09091C108.901 5.50379 109.014 6.05682 109.014 6.75V12.5H107.673V11.3182H107.605C107.514 11.5076 107.363 11.7102 107.151 11.9261C106.938 12.142 106.656 12.3258 106.304 12.4773C105.952 12.6288 105.522 12.7045 105.014 12.7045ZM105.219 11.5C105.749 11.5 106.196 11.3958 106.56 11.1875C106.927 10.9792 107.204 10.7102 107.389 10.3807C107.579 10.0511 107.673 9.70455 107.673 9.34091V8.11364C107.616 8.18182 107.491 8.24432 107.298 8.30114C107.109 8.35417 106.889 8.40151 106.639 8.44318C106.393 8.48106 106.152 8.51515 105.918 8.54545C105.687 8.57197 105.499 8.5947 105.355 8.61364C105.007 8.65909 104.681 8.73295 104.378 8.83523C104.079 8.93371 103.836 9.08333 103.651 9.28409C103.469 9.48106 103.378 9.75 103.378 10.0909C103.378 10.5568 103.55 10.9091 103.895 11.1477C104.243 11.3826 104.685 11.5 105.219 11.5ZM114.757 12.6818C114.03 12.6818 113.388 12.4981 112.831 12.1307C112.274 11.7595 111.839 11.2367 111.524 10.5625C111.21 9.88447 111.053 9.08333 111.053 8.15909C111.053 7.24242 111.21 6.44697 111.524 5.77273C111.839 5.09848 112.276 4.57765 112.837 4.21023C113.397 3.8428 114.045 3.65909 114.78 3.65909C115.348 3.65909 115.797 3.75379 116.126 3.94318C116.46 4.12879 116.714 4.34091 116.888 4.57955C117.066 4.81439 117.204 5.00758 117.303 5.15909H117.416V0.863636H118.757V12.5H117.462V11.1591H117.303C117.204 11.3182 117.064 11.5189 116.882 11.7614C116.7 12 116.441 12.214 116.104 12.4034C115.767 12.589 115.318 12.6818 114.757 12.6818ZM114.939 11.4773C115.477 11.4773 115.931 11.3371 116.303 11.0568C116.674 10.7727 116.956 10.3807 117.149 9.88068C117.342 9.37689 117.439 8.79545 117.439 8.13636C117.439 7.48485 117.344 6.91477 117.155 6.42614C116.965 5.93371 116.685 5.55114 116.314 5.27841C115.943 5.00189 115.484 4.86364 114.939 4.86364C114.371 4.86364 113.897 5.00947 113.518 5.30114C113.143 5.58902 112.861 5.98106 112.672 6.47727C112.486 6.9697 112.393 7.52273 112.393 8.13636C112.393 8.75758 112.488 9.32197 112.678 9.82955C112.871 10.3333 113.155 10.7348 113.53 11.0341C113.909 11.3295 114.378 11.4773 114.939 11.4773ZM122.74 0.863636V12.5H121.399V0.863636H122.74ZM125.196 12.5V3.77273H126.537V12.5H125.196ZM125.878 2.31818C125.616 2.31818 125.391 2.22917 125.202 2.05114C125.016 1.87311 124.923 1.65909 124.923 1.40909C124.923 1.15909 125.016 0.945076 125.202 0.767045C125.391 0.589015 125.616 0.5 125.878 0.5C126.139 0.5 126.363 0.589015 126.548 0.767045C126.738 0.945076 126.832 1.15909 126.832 1.40909C126.832 1.65909 126.738 1.87311 126.548 2.05114C126.363 2.22917 126.139 2.31818 125.878 2.31818ZM130.334 7.25V12.5H128.993V3.77273H130.288V5.13636H130.402C130.607 4.69318 130.917 4.33712 131.334 4.06818C131.75 3.79545 132.288 3.65909 132.947 3.65909C133.538 3.65909 134.055 3.7803 134.499 4.02273C134.942 4.26136 135.286 4.625 135.533 5.11364C135.779 5.59848 135.902 6.21212 135.902 6.95455V12.5H134.561V7.04545C134.561 6.35985 134.383 5.82576 134.027 5.44318C133.671 5.05682 133.182 4.86364 132.561 4.86364C132.133 4.86364 131.75 4.95644 131.413 5.14205C131.08 5.32765 130.817 5.59848 130.624 5.95455C130.43 6.31061 130.334 6.74242 130.334 7.25ZM142.011 12.6818C141.17 12.6818 140.445 12.4962 139.835 12.125C139.229 11.75 138.761 11.2273 138.432 10.5568C138.106 9.88258 137.943 9.09848 137.943 8.20455C137.943 7.31061 138.106 6.52273 138.432 5.84091C138.761 5.1553 139.22 4.62121 139.807 4.23864C140.398 3.85227 141.087 3.65909 141.875 3.65909C142.33 3.65909 142.778 3.73485 143.222 3.88636C143.665 4.03788 144.068 4.28409 144.432 4.625C144.795 4.96212 145.085 5.40909 145.301 5.96591C145.517 6.52273 145.625 7.20833 145.625 8.02273V8.59091H138.898V7.43182H144.261C144.261 6.93939 144.163 6.5 143.966 6.11364C143.773 5.72727 143.496 5.42235 143.136 5.19886C142.78 4.97538 142.36 4.86364 141.875 4.86364C141.341 4.86364 140.879 4.99621 140.489 5.26136C140.102 5.52273 139.805 5.86364 139.597 6.28409C139.388 6.70455 139.284 7.1553 139.284 7.63636V8.40909C139.284 9.06818 139.398 9.62689 139.625 10.0852C139.856 10.5398 140.176 10.8864 140.585 11.125C140.994 11.3598 141.47 11.4773 142.011 11.4773C142.364 11.4773 142.682 11.428 142.966 11.3295C143.254 11.2273 143.502 11.0758 143.71 10.875C143.919 10.6705 144.08 10.4167 144.193 10.1136L145.489 10.4773C145.352 10.9167 145.123 11.303 144.801 11.6364C144.479 11.9659 144.081 12.2235 143.608 12.4091C143.134 12.5909 142.602 12.6818 142.011 12.6818Z" fill="#2A3647"/>
</svg>
