<svg width="51" height="16" viewBox="0 0 51 16" fill="none" xmlns="http://www.w3.org/2000/svg">
<path d="M8.04545 0.363636H9.45455V8.06818C9.45455 8.86364 9.26705 9.57386 8.89205 10.1989C8.52083 10.8201 7.99621 11.3106 7.31818 11.6705C6.64015 12.0265 5.8447 12.2045 4.93182 12.2045C4.01894 12.2045 3.22348 12.0265 2.54545 11.6705C1.86742 11.3106 1.34091 10.8201 0.965909 10.1989C0.594697 9.57386 0.409091 8.86364 0.409091 8.06818V0.363636H1.81818V7.95455C1.81818 8.52273 1.94318 9.02841 2.19318 9.47159C2.44318 9.91098 2.79924 10.2576 3.26136 10.5114C3.72727 10.7614 4.28409 10.8864 4.93182 10.8864C5.57955 10.8864 6.13636 10.7614 6.60227 10.5114C7.06818 10.2576 7.42424 9.91098 7.67045 9.47159C7.92045 9.02841 8.04545 8.52273 8.04545 7.95455V0.363636ZM12.0866 12V3.27273H13.3821V4.59091H13.473C13.6321 4.15909 13.92 3.80871 14.3366 3.53977C14.7533 3.27083 15.223 3.13636 15.7457 3.13636C15.8442 3.13636 15.9673 3.13826 16.1151 3.14205C16.2628 3.14583 16.3745 3.15152 16.4503 3.15909V4.52273C16.4048 4.51136 16.3007 4.49432 16.1378 4.47159C15.9787 4.44508 15.8101 4.43182 15.6321 4.43182C15.2079 4.43182 14.8291 4.52083 14.4957 4.69886C14.1662 4.87311 13.9048 5.11553 13.7116 5.42614C13.5223 5.73295 13.4276 6.08333 13.4276 6.47727V12H12.0866ZM21.2969 15.4545C20.6491 15.4545 20.0923 15.3712 19.6264 15.2045C19.1605 15.0417 18.7723 14.8258 18.4616 14.5568C18.1548 14.2917 17.9105 14.0076 17.7287 13.7045L18.7969 12.9545C18.9181 13.1136 19.0715 13.2955 19.2571 13.5C19.4427 13.7083 19.6965 13.8883 20.0185 14.0398C20.3442 14.1951 20.7704 14.2727 21.2969 14.2727C22.0014 14.2727 22.5829 14.1023 23.0412 13.7614C23.4995 13.4205 23.7287 12.8864 23.7287 12.1591V10.3864H23.6151C23.5166 10.5455 23.3764 10.7424 23.1946 10.9773C23.0166 11.2083 22.759 11.4148 22.4219 11.5966C22.0885 11.7746 21.6378 11.8636 21.0696 11.8636C20.3651 11.8636 19.7325 11.697 19.1719 11.3636C18.6151 11.0303 18.1738 10.5455 17.848 9.90909C17.526 9.27273 17.3651 8.5 17.3651 7.59091C17.3651 6.69697 17.5223 5.91856 17.8366 5.25568C18.151 4.58901 18.5885 4.07386 19.1491 3.71023C19.7098 3.3428 20.3575 3.15909 21.0923 3.15909C21.6605 3.15909 22.1113 3.25379 22.4446 3.44318C22.7817 3.62879 23.0393 3.84091 23.2173 4.07955C23.3991 4.31439 23.5393 4.50758 23.6378 4.65909H23.7741V3.27273H25.0696V12.25C25.0696 13 24.8991 13.6098 24.5582 14.0795C24.2211 14.553 23.7666 14.8996 23.1946 15.1193C22.6264 15.3428 21.9938 15.4545 21.2969 15.4545ZM21.2514 10.6591C21.7893 10.6591 22.2438 10.536 22.6151 10.2898C22.9863 10.0436 23.2685 9.68939 23.4616 9.22727C23.6548 8.76515 23.7514 8.21212 23.7514 7.56818C23.7514 6.93939 23.6567 6.38447 23.4673 5.90341C23.2779 5.42235 22.9976 5.04545 22.6264 4.77273C22.2552 4.5 21.7969 4.36364 21.2514 4.36364C20.6832 4.36364 20.2098 4.50758 19.831 4.79545C19.456 5.08333 19.1738 5.4697 18.9844 5.95455C18.7988 6.43939 18.706 6.97727 18.706 7.56818C18.706 8.17424 18.8007 8.71023 18.9901 9.17614C19.1832 9.63826 19.4673 10.0019 19.8423 10.267C20.2211 10.5284 20.6908 10.6591 21.2514 10.6591ZM31.1832 12.1818C30.3423 12.1818 29.617 11.9962 29.0071 11.625C28.401 11.25 27.9332 10.7273 27.6037 10.0568C27.2779 9.38258 27.1151 8.59848 27.1151 7.70455C27.1151 6.81061 27.2779 6.02273 27.6037 5.34091C27.9332 4.6553 28.3916 4.12121 28.9787 3.73864C29.5696 3.35227 30.259 3.15909 31.0469 3.15909C31.5014 3.15909 31.9503 3.23485 32.3935 3.38636C32.8366 3.53788 33.2401 3.78409 33.6037 4.125C33.9673 4.46212 34.2571 4.90909 34.473 5.46591C34.6889 6.02273 34.7969 6.70833 34.7969 7.52273V8.09091H28.0696V6.93182H33.4332C33.4332 6.43939 33.3348 6 33.1378 5.61364C32.9446 5.22727 32.6681 4.92235 32.3082 4.69886C31.9522 4.47538 31.5317 4.36364 31.0469 4.36364C30.5128 4.36364 30.0507 4.49621 29.6605 4.76136C29.2741 5.02273 28.9768 5.36364 28.7685 5.78409C28.5601 6.20455 28.456 6.6553 28.456 7.13636V7.90909C28.456 8.56818 28.5696 9.12689 28.7969 9.58523C29.0279 10.0398 29.348 10.3864 29.7571 10.625C30.1662 10.8598 30.6416 10.9773 31.1832 10.9773C31.5355 10.9773 31.8537 10.928 32.1378 10.8295C32.4257 10.7273 32.6738 10.5758 32.8821 10.375C33.0904 10.1705 33.2514 9.91667 33.3651 9.61364L34.6605 9.97727C34.5241 10.4167 34.295 10.803 33.973 11.1364C33.651 11.4659 33.2533 11.7235 32.7798 11.9091C32.3063 12.0909 31.7741 12.1818 31.1832 12.1818ZM38.1776 6.75V12H36.8366V3.27273H38.1321V4.63636H38.2457C38.4503 4.19318 38.7609 3.83712 39.1776 3.56818C39.5942 3.29545 40.1321 3.15909 40.7912 3.15909C41.3821 3.15909 41.8991 3.2803 42.3423 3.52273C42.7855 3.76136 43.1302 4.125 43.3764 4.61364C43.6226 5.09848 43.7457 5.71212 43.7457 6.45455V12H42.4048V6.54545C42.4048 5.85985 42.2268 5.32576 41.8707 4.94318C41.5147 4.55682 41.026 4.36364 40.4048 4.36364C39.9768 4.36364 39.5942 4.45644 39.2571 4.64205C38.9238 4.82765 38.6605 5.09848 38.4673 5.45455C38.2741 5.81061 38.1776 6.24242 38.1776 6.75ZM49.9915 3.27273V4.40909H45.4688V3.27273H49.9915ZM46.7869 1.18182H48.1278V9.5C48.1278 9.87879 48.1828 10.1629 48.2926 10.3523C48.4063 10.5379 48.5502 10.6629 48.7244 10.7273C48.9025 10.7879 49.09 10.8182 49.2869 10.8182C49.4347 10.8182 49.5559 10.8106 49.6506 10.7955C49.7453 10.7765 49.821 10.7614 49.8778 10.75L50.1506 11.9545C50.0597 11.9886 49.9328 12.0227 49.7699 12.0568C49.607 12.0947 49.4006 12.1136 49.1506 12.1136C48.7718 12.1136 48.4006 12.0322 48.0369 11.8693C47.6771 11.7064 47.3778 11.4583 47.1392 11.125C46.9044 10.7917 46.7869 10.3712 46.7869 9.86364V1.18182Z" fill="#2A3647"/>
</svg>
